<?xml version="1.0" encoding="utf-8" ?>
<svg xmlns="http://www.w3.org/2000/svg" xmlns:xlink="http://www.w3.org/1999/xlink" width="12" height="13">
	<path fill="none" stroke="#472101" stroke-width="1.3333334" stroke-linecap="round" stroke-linejoin="round" transform="translate(0.666992 0.666585)" d="M0 10.218951L2.6666667 10.218951L9.666667 3.2189515C9.8417625 3.0438557 9.9806566 2.8359864 10.075418 2.6072128C10.170179 2.3784389 10.218951 2.1332412 10.218951 1.8856182C10.218951 1.6379954 10.170179 1.3927971 10.075418 1.1640234C9.9806566 0.93524969 9.8417625 0.72738069 9.666667 0.5522849C9.4915705 0.37718904 9.2837019 0.23829553 9.0549278 0.14353435C8.8261538 0.048773158 8.5809565 0 8.333333 0C8.0857105 0 7.8405128 0.048773158 7.6117387 0.14353435C7.3829651 0.23829553 7.175096 0.37718904 7 0.5522849L0 7.5522847L0 10.218951Z"/>
	<path fill="none" stroke="#472101" stroke-width="1.3333334" stroke-linecap="round" stroke-linejoin="round" transform="translate(0.666992 0.666585)" d="M6.3333335 1.21875L9 3.8854167"/>
</svg>
