<?xml version="1.0" encoding="utf-8" ?>
<svg xmlns="http://www.w3.org/2000/svg" xmlns:xlink="http://www.w3.org/1999/xlink" width="14" height="14">
	<path fill="none" stroke="#472101" stroke-width="1.3333334" stroke-linecap="round" stroke-linejoin="round" transform="translate(0.666992 0.666748)" d="M0 4.6666665C0 5.2795019 0.12070695 5.8863368 0.3552289 6.4525228C0.58975083 7.0187092 0.93349487 7.5331578 1.366835 7.9664979C1.8001751 8.3998384 2.3146248 8.7435827 2.8808107 8.9781046C3.4469969 9.2126265 4.0538311 9.333333 4.6666665 9.333333C5.2795019 9.333333 5.8863368 9.2126265 6.4525228 8.9781046C7.0187092 8.7435827 7.5331578 8.3998384 7.9664979 7.9664979C8.3998384 7.5331578 8.7435827 7.0187092 8.9781046 6.4525228C9.2126265 5.8863368 9.333333 5.2795019 9.333333 4.6666665C9.333333 4.0538311 9.2126265 3.4469969 8.9781046 2.8808107C8.7435827 2.3146248 8.3998384 1.8001751 7.9664979 1.366835C7.5331578 0.93349487 7.0187092 0.58975071 6.4525228 0.35522875C5.8863368 0.12070677 5.2795019 0 4.6666665 0C4.0538311 0 3.4469969 0.12070677 2.8808107 0.35522875C2.3146248 0.58975071 1.8001751 0.93349487 1.366835 1.366835C0.93349487 1.8001751 0.58975083 2.3146248 0.3552289 2.8808107C0.12070695 3.4469969 0 4.0538311 0 4.6666665Z"/>
	<path fill="none" stroke="#472101" stroke-width="1.3333334" stroke-linecap="round" stroke-linejoin="round" transform="translate(0.666992 0.666748)" d="M12 12L8 8"/>
</svg>
