<?xml version="1.0" encoding="utf-8" ?>
<svg xmlns="http://www.w3.org/2000/svg" xmlns:xlink="http://www.w3.org/1999/xlink" width="12" height="14">
	<path fill="none" stroke="#472101" stroke-width="1.3333334" stroke-linecap="round" stroke-linejoin="round" transform="translate(0.666016 0.666748)" d="M2.6666667 1.3333334L1.3333334 1.3333334C0.97971135 1.3333334 0.64057273 1.473809 0.39052424 1.7238575C0.14047574 1.973906 0 2.3130448 0 2.6666667L0 10.666667C0 11.020288 0.14047574 11.359426 0.39052424 11.609475C0.64057273 11.859524 0.97971135 12 1.3333334 12L8 12C8.3536224 12 8.6927605 11.859524 8.9428091 11.609475C9.1928577 11.359426 9.333333 11.020288 9.333333 10.666667L9.333333 2.6666667C9.333333 2.3130448 9.1928577 1.973906 8.9428091 1.7238575C8.6927605 1.473809 8.3536224 1.3333334 8 1.3333334L6.6666665 1.3333334"/>
	<path fill="none" stroke="#472101" stroke-width="1.3333334" stroke-linecap="round" stroke-linejoin="round" transform="translate(0.666016 0.666748)" d="M2.6666667 1.3333334C2.6666667 0.97971135 2.8071427 0.64057273 3.0571911 0.39052424C3.3072398 0.14047574 3.646378 0 4 0L5.3333335 0C5.6869555 0 6.0260935 0.14047574 6.2761421 0.39052424C6.5261908 0.64057273 6.6666665 0.97971135 6.6666665 1.3333334C6.6666665 1.6869553 6.5261908 2.026094 6.2761421 2.2761424C6.0260935 2.526191 5.6869555 2.6666667 5.3333335 2.6666667L4 2.6666667C3.646378 2.6666667 3.3072398 2.526191 3.0571911 2.2761424C2.8071427 2.026094 2.6666667 1.6869553 2.6666667 1.3333334Z"/>
	<path fill="none" stroke="#472101" stroke-width="1.3333334" stroke-linecap="round" stroke-linejoin="round" transform="translate(0.666016 0.666748)" d="M2.6666667 6L2.6733334 6"/>
	<path fill="none" stroke="#472101" stroke-width="1.3333334" stroke-linecap="round" stroke-linejoin="round" transform="translate(0.666016 0.666748)" d="M5.3333335 6L6.6666665 6"/>
	<path fill="none" stroke="#472101" stroke-width="1.3333334" stroke-linecap="round" stroke-linejoin="round" transform="translate(0.666016 0.666748)" d="M2.6666667 8.666667L2.6733334 8.666667"/>
	<path fill="none" stroke="#472101" stroke-width="1.3333334" stroke-linecap="round" stroke-linejoin="round" transform="translate(0.666016 0.666748)" d="M5.3333335 8.666667L6.6666665 8.666667"/>
</svg>
