<?xml version="1.0" encoding="utf-8" ?>
<svg xmlns="http://www.w3.org/2000/svg" xmlns:xlink="http://www.w3.org/1999/xlink" width="17" height="15">
	<path fill="none" stroke="#3F3B37" stroke-width="1.5" stroke-linecap="round" stroke-linejoin="round" transform="translate(0.785156 0.75)" d="M5.25 4.5C5.25 4.8978248 5.4080358 5.2793555 5.6893401 5.5606599C5.9706445 5.8419642 6.3521752 6 6.75 6C7.1478248 6 7.5293555 5.8419642 7.8106599 5.5606599C8.0919647 5.2793555 8.25 4.8978248 8.25 4.5C8.25 4.1021752 8.0919647 3.7206447 7.8106599 3.4393401C7.5293555 3.1580355 7.1478248 3 6.75 3C6.3521752 3 5.9706445 3.1580355 5.6893401 3.4393401C5.4080358 3.7206447 5.25 4.1021752 5.25 4.5Z"/>
	<path fill="none" stroke="#3F3B37" stroke-width="1.5" stroke-linecap="round" stroke-linejoin="round" transform="translate(0.785156 0.75)" d="M6.75 9C6.5040002 9 6.2609997 8.9872503 6.0225 8.9625006C3.6434999 8.713501 1.6350001 7.2262502 0 4.5C1.8000001 1.5 4.0500002 0 6.75 0C9.3487501 0 11.530499 1.3897498 13.29525 4.1684999"/>
	<path fill="none" stroke="#3F3B37" stroke-width="1.5" stroke-linecap="round" stroke-linejoin="round" transform="translate(0.785156 0.75)" d="M9 9C9 9.5967369 9.2370529 10.169034 9.6590099 10.59099C10.080966 11.012947 10.653263 11.25 11.25 11.25C11.846737 11.25 12.419034 11.012947 12.840991 10.59099C13.262947 10.169034 13.5 9.5967369 13.5 9C13.5 8.4032631 13.262947 7.8309665 12.840991 7.4090095C12.419034 6.9870524 11.846737 6.75 11.25 6.75C10.653263 6.75 10.080966 6.9870524 9.6590099 7.4090095C9.2370529 7.8309665 9 8.4032631 9 9Z"/>
	<path fill="none" stroke="#3F3B37" stroke-width="1.5" stroke-linecap="round" stroke-linejoin="round" transform="translate(0.785156 0.75)" d="M12.899963 10.650146L14.249963 12.000146"/>
</svg>
