<?xml version="1.0" encoding="utf-8" ?>
<svg xmlns="http://www.w3.org/2000/svg" xmlns:xlink="http://www.w3.org/1999/xlink" width="28" height="28">
	<path fill="none" stroke="black" stroke-width="2.6666667" stroke-linecap="round" stroke-linejoin="round" transform="translate(1.33561 1.35706)" d="M11.886067 18.63151L9.2194014 21.298178L11.886067 23.964844"/>
	<path fill="none" stroke="black" stroke-width="2.6666667" stroke-linecap="round" stroke-linejoin="round" transform="translate(1.33561 1.35706)" d="M9.2194014 21.298178L21.2194 21.298178C21.644207 21.276276 22.057611 21.15307 22.4251 20.938843C22.792587 20.724615 23.103495 20.425585 23.331865 20.066717C23.560238 19.707848 23.699444 19.299553 23.737867 18.875921C23.776289 18.452288 23.712812 18.025612 23.552734 17.63151L22.819403 16.298178"/>
	<path fill="none" stroke="black" stroke-width="2.6666667" stroke-linecap="round" stroke-linejoin="round" transform="translate(1.33561 1.35706)" d="M7.2674298 10.630948L6.2914295 6.9882812L2.6487629 7.9642816"/>
	<path fill="none" stroke="black" stroke-width="2.6666667" stroke-linecap="round" stroke-linejoin="round" transform="translate(1.33561 1.35706)" d="M6.2914295 6.9882812L0.2913833 17.380281C0.098105229 17.759045 -0.0017925509 18.178535 0 18.603758C0.0018412448 19.028978 0.10532024 19.447601 0.30182794 19.824697C0.49833563 20.201794 0.78217369 20.52643 1.1296614 20.771521C1.4771491 21.016611 1.8782101 21.175047 2.2993834 21.233614L3.8207171 21.265615"/>
	<path fill="none" stroke="black" stroke-width="2.6666667" stroke-linecap="round" stroke-linejoin="round" transform="translate(1.33561 1.35706)" d="M16.504721 10.631511L20.147387 11.607511L21.123386 7.9648438"/>
	<path fill="none" stroke="black" stroke-width="2.6666667" stroke-linecap="round" stroke-linejoin="round" transform="translate(1.33561 1.35706)" d="M20.147387 11.607511L14.1474 1.215269C13.915944 0.85851884 13.602525 0.56229669 13.233294 0.35131979C12.864063 0.14034288 12.449731 0.02072998 12.024868 0.0024619107C11.600005 -0.015806157 11.176933 0.067800462 10.790956 0.2463053C10.404979 0.42481014 10.067289 0.69303638 9.8060656 1.0286025L9.0180664 2.3299358"/>
</svg>
