<?xml version="1.0" encoding="utf-8" ?>
<svg xmlns="http://www.w3.org/2000/svg" xmlns:xlink="http://www.w3.org/1999/xlink" width="26" height="24">
	<path fill="none" stroke="black" stroke-width="2.6666667" stroke-linecap="round" stroke-linejoin="round" transform="translate(1.33301 1.33333)" d="M16 9.333333C16.707245 9.333333 17.385521 9.6142855 17.885618 10.114383C18.385715 10.614479 18.666666 11.292756 18.666666 12L18.666666 16C18.666666 16.530434 18.877382 17.039141 19.252455 17.414213C19.627527 17.789286 20.136234 18 20.666666 18C21.1971 18 21.705807 17.789286 22.080879 17.414213C22.455952 17.039141 22.666666 16.530434 22.666666 16L22.666666 6.6666665L18.666666 2.6666667"/>
	<path fill="none" stroke="black" stroke-width="2.6666667" stroke-linecap="round" stroke-linejoin="round" transform="translate(1.33301 1.33333)" d="M1.3333334 21.333334L1.3333334 2.6666667C1.3333334 1.9594227 1.6142848 1.2811455 2.1143818 0.78104848C2.6144788 0.28095147 3.2927561 0 4 0L12 0C12.707244 0 13.385521 0.28095147 13.885617 0.78104848C14.385715 1.2811455 14.666667 1.9594227 14.666667 2.6666667L14.666667 21.333334"/>
	<path fill="none" stroke="black" stroke-width="2.6666667" stroke-linecap="round" stroke-linejoin="round" transform="translate(1.33301 1.33333)" d="M0 21.333334L16 21.333334"/>
	<path fill="none" stroke="black" stroke-width="2.6666667" stroke-linecap="round" stroke-linejoin="round" transform="translate(1.33301 1.33333)" d="M20 4L20 5.3333335C20 5.6869555 20.140474 6.0260935 20.390524 6.2761421C20.640572 6.5261908 20.979712 6.6666665 21.333334 6.6666665L22.666666 6.6666665"/>
	<path fill="none" stroke="black" stroke-width="2.6666667" stroke-linecap="round" stroke-linejoin="round" transform="translate(1.33301 1.33333)" d="M1.3333334 9.333333L16 9.333333"/>
</svg>
