<?xml version="1.0" encoding="utf-8" ?>
<svg xmlns="http://www.w3.org/2000/svg" xmlns:xlink="http://www.w3.org/1999/xlink" width="30" height="28">
	<path fill="none" stroke="black" stroke-width="2.6666667" stroke-linecap="round" stroke-linejoin="round" transform="translate(1.33366 1.81665)" d="M6.2093334 17.333179C2.78 17.333179 0 14.65718 0 11.355846C0 8.0558462 2.78 5.3798451 6.2093334 5.3798451C6.7333336 3.0305121 8.6013327 1.1131793 11.109333 0.34917927C13.615999 -0.41348743 16.384001 0.091845989 18.368 1.6825126C20.351999 3.2691793 21.250666 5.6918459 20.727999 8.0411787L22.047998 8.0411787C24.598665 8.0411787 26.666666 10.12118 26.666666 12.689179C26.666666 15.258513 24.598667 17.338512 22.046667 17.338512L6.2093334 17.338512"/>
	<path fill="none" stroke="black" stroke-width="2.6666667" stroke-linecap="round" stroke-linejoin="round" transform="translate(1.33366 1.81665)" d="M13.333333 17.333334L13.333333 24"/>
	<path fill="none" stroke="black" stroke-width="2.6666667" stroke-linecap="round" stroke-linejoin="round" transform="translate(1.33366 1.81665)" d="M18.666666 17.333334L18.666666 22.666666C18.666666 23.020288 18.807142 23.359428 19.05719 23.609476C19.307238 23.859526 19.646378 24 20 24L25.333334 24"/>
	<path fill="none" stroke="black" stroke-width="2.6666667" stroke-linecap="round" stroke-linejoin="round" transform="translate(1.33366 1.81665)" d="M8 17.333334L8 22.666666C8 23.020288 7.8595238 23.359428 7.6094756 23.609476C7.359427 23.859526 7.0202885 24 6.6666665 24L1.3333334 24"/>
</svg>
