<?xml version="1.0" encoding="utf-8" ?>
<svg xmlns="http://www.w3.org/2000/svg" xmlns:xlink="http://www.w3.org/1999/xlink" width="30" height="29">
	<path fill="none" stroke="black" stroke-width="2.6666667" stroke-linecap="round" stroke-linejoin="round" transform="translate(1.78223 1.46338)" d="M22.666666 10.666667L12 0L0 12L2.6666667 12L2.6666667 21.333334C2.6666667 22.040577 2.9476182 22.718853 3.447715 23.21895C3.9478121 23.719048 4.6260896 24 5.3333335 24L12 24"/>
	<path fill="none" stroke="black" stroke-width="2.6666667" stroke-linecap="round" stroke-linejoin="round" transform="translate(1.78223 1.46338)" d="M8 24L8 16C8 15.292756 8.2809525 14.614479 8.7810488 14.114383C9.281146 13.614285 9.9594231 13.333333 10.666667 13.333333L13.333333 13.333333C13.766666 13.333333 14.174667 13.436 14.536 13.62"/>
	<path fill="none" stroke="black" stroke-width="2.6666667" stroke-linecap="round" stroke-linejoin="round" transform="translate(1.78223 1.46338)" d="M17.333334 25.333334C17.333334 23.555555 18.666666 21.777779 21.333334 20"/>
	<path fill="none" stroke="black" stroke-width="2.6666667" stroke-linecap="round" stroke-linejoin="round" transform="translate(1.78223 1.46338)" d="M21.333334 24C20.272467 24 19.255051 23.578573 18.504906 22.828428C17.754761 22.078281 17.333334 21.060865 17.333334 20C17.333334 18.939135 17.754761 17.921719 18.504906 17.171572C19.255051 16.421427 20.272467 16 21.333334 16L25.333334 16L25.333334 20C25.333334 21.060865 24.911907 22.078281 24.16176 22.828428C23.411615 23.578573 22.394199 24 21.333334 24Z"/>
</svg>
