<?xml version="1.0" encoding="utf-8" ?>
<svg xmlns="http://www.w3.org/2000/svg" xmlns:xlink="http://www.w3.org/1999/xlink" width="27" height="27">
	<path fill="none" stroke="black" stroke-width="2.6666667" stroke-linecap="round" stroke-linejoin="round" transform="translate(1.3335 1.33325)" d="M0 12L1.3333334 12M12 0L12 1.3333334M22.666666 12L24 12M3.4666665 3.4666665L4.4000001 4.4000001M20.533333 3.4666665L19.6 4.4000001"/>
	<path fill="none" stroke="black" stroke-width="2.6666667" stroke-linecap="round" stroke-linejoin="round" transform="translate(1.3335 1.33325)" d="M8 17.333334C6.8806267 16.493803 6.0537772 15.323356 5.6365762 13.987784C5.2193751 12.652213 5.2329736 11.219229 5.6754451 9.8918152C6.1179161 8.5644016 6.9668279 7.4098549 8.1019316 6.5917187C9.2370348 5.7735825 10.600783 5.3333335 12 5.3333335C13.399217 5.3333335 14.762965 5.7735825 15.898068 6.5917187C17.033173 7.4098549 17.882084 8.5644016 18.324554 9.8918152C18.767025 11.219229 18.780624 12.652213 18.363424 13.987784C17.946222 15.323356 17.119373 16.493803 16 17.333334C15.479424 17.848644 15.087462 18.479261 14.855828 19.174164C14.624194 19.869066 14.559392 20.60874 14.666667 21.333334C14.666667 22.040577 14.385715 22.718853 13.885617 23.21895C13.385521 23.719048 12.707244 24 12 24C11.292756 24 10.614479 23.719048 10.114383 23.21895C9.6142855 22.718853 9.333333 22.040577 9.333333 21.333334C9.440608 20.60874 9.3758059 19.869066 9.1441717 19.174164C8.9125376 18.479261 8.5205755 17.848644 8 17.333334Z"/>
	<path fill="none" stroke="black" stroke-width="2.6666667" stroke-linecap="round" stroke-linejoin="round" transform="translate(1.3335 1.33325)" d="M8.9332685 18.666666L15.066602 18.666666"/>
</svg>
