<?xml version="1.0" encoding="utf-8" ?>
<svg xmlns="http://www.w3.org/2000/svg" xmlns:xlink="http://www.w3.org/1999/xlink" width="27" height="29">
	<path fill="none" stroke="#120D0C" stroke-width="2.6666667" stroke-linecap="round" stroke-linejoin="round" transform="translate(1.3335 1.521)" d="M0 12C0 13.575863 0.31038904 15.136294 0.91344547 16.592201C1.5165019 18.048109 2.4004154 19.370977 3.5147183 20.485281C4.6290212 21.599583 5.9518919 22.4835 7.4077988 23.086555C8.8637056 23.689611 10.424137 24 12 24C13.575863 24 15.136294 23.689611 16.592201 23.086555C18.048109 22.4835 19.370977 21.599583 20.485281 20.485281C21.599583 19.370977 22.4835 18.048109 23.086555 16.592201C23.689611 15.136294 24 13.575863 24 12C24 8.8174019 22.735716 5.7651553 20.485281 3.5147188C18.234844 1.2642822 15.182598 0 12 0C8.8174019 0 5.7651548 1.2642822 3.5147183 3.5147188C1.2642819 5.7651553 0 8.8174019 0 12Z"/>
	<path fill="none" stroke="#120D0C" stroke-width="2.6666667" stroke-linecap="round" stroke-linejoin="round" transform="translate(1.3335 1.521)" d="M0.79996747 8L23.199966 8"/>
	<path fill="none" stroke="#120D0C" stroke-width="2.6666667" stroke-linecap="round" stroke-linejoin="round" transform="translate(1.3335 1.521)" d="M0.79996747 16L23.199966 16"/>
	<path fill="none" stroke="#120D0C" stroke-width="2.6666667" stroke-linecap="round" stroke-linejoin="round" transform="translate(1.3335 1.521)" d="M11.333382 0C9.0871687 3.5994825 7.8963218 7.7571535 7.8963218 12C7.8963218 16.242847 9.0871687 20.400518 11.333382 24"/>
	<path fill="none" stroke="#120D0C" stroke-width="2.6666667" stroke-linecap="round" stroke-linejoin="round" transform="translate(1.3335 1.521)" d="M12.666667 0C14.912879 3.5994825 16.103727 7.7571535 16.103727 12C16.103727 16.242847 14.912879 20.400518 12.666667 24"/>
</svg>
