<?xml version="1.0" encoding="utf-8" ?>
<svg xmlns="http://www.w3.org/2000/svg" xmlns:xlink="http://www.w3.org/1999/xlink" width="20" height="20">
	<path fill="none" stroke="#1E1E1E" stroke-width="1.36" stroke-linecap="round" stroke-linejoin="round" transform="translate(5 2.49507)" d="M0 5.8382678C-0.001951996 3.3729033 1.5461974 1.1725003 3.8673236 0.34159753C6.1884499 -0.48930511 8.7813206 0.22872068 10.34439 2.1352465C11.907458 4.0417724 12.103191 6.7250967 10.833335 8.8382683C10.35955 9.4699821 9.7983828 10.031149 9.1666689 10.504934C8.4281149 11.200587 7.8580837 12.055634 7.5 13.004934C6.9764061 13.994404 6.0381298 14.698207 4.9416618 14.92395C3.8451941 15.149693 2.7052088 14.873768 1.8333352 14.171601" fill-rule="evenodd"/>
	<path fill="none" stroke="#1E1E1E" stroke-width="1.36" stroke-linecap="round" stroke-linejoin="round" transform="translate(8.33315 5.80319)" d="M0.00018072808 2.5301428C-0.013601373 1.3777498 0.76218027 0.36525774 1.8784715 0.078738317C2.9947627 -0.20778111 4.1622748 0.30592418 4.705204 1.3225006C5.2481332 2.339077 5.0257783 3.5950768 4.1668472 4.3634763" fill-rule="evenodd"/>
</svg>
