<?xml version="1.0" encoding="utf-8" ?>
<svg xmlns="http://www.w3.org/2000/svg" xmlns:xlink="http://www.w3.org/1999/xlink" width="18" height="18">
	<path fill="none" stroke="#3F3B37" stroke-width="1.6666666" stroke-linecap="round" stroke-linejoin="round" transform="translate(0.833008 0.833251)" d="M0 15.328427L4 15.328427L14.5 4.8284273C14.762644 4.5657835 14.970985 4.2539797 15.113127 3.9108191C15.255268 3.5676584 15.328426 3.1998618 15.328426 2.8284273C15.328426 2.4569929 15.255268 2.0891957 15.113127 1.7460351C14.970985 1.4028745 14.762644 1.091071 14.5 0.82842731C14.237356 0.56578356 13.925552 0.3574433 13.582392 0.21530151C13.239231 0.073159739 12.871434 0 12.5 0C12.128566 0 11.760769 0.073159739 11.417608 0.21530151C11.074448 0.3574433 10.762644 0.56578356 10.5 0.82842731L0 11.328427L0 15.328427Z"/>
	<path fill="none" stroke="#3F3B37" stroke-width="1.6666666" stroke-linecap="round" stroke-linejoin="round" transform="translate(0.833008 0.833251)" d="M9.5 1.828125L13.5 5.828125"/>
</svg>
