<?xml version="1.0" encoding="utf-8" ?>
<svg xmlns="http://www.w3.org/2000/svg" xmlns:xlink="http://www.w3.org/1999/xlink" width="20" height="20">
	<path fill="none" stroke="#3F3B37" stroke-width="2" stroke-linecap="round" stroke-linejoin="round" transform="translate(8.33333 4.16667)" d="M3.3333333 0.83333331C3.3333333 0.37309605 2.9602373 0 2.5 0L0.83333331 0C0.37309605 0 0 0.37309605 0 0.83333331L0 5.8333335C0 6.2935705 0.37309605 6.6666665 0.83333331 6.6666665L2.5 6.6666665C2.9602373 6.6666665 3.3333333 6.2935705 3.3333333 5.8333335L3.3333333 4.1666665C3.3333333 3.7064295 2.9602373 3.3333333 2.5 3.3333333L0 3.3333333" fill-rule="evenodd"/>
	<path fill="none" stroke="#3F3B37" stroke-width="2" stroke-linecap="round" stroke-linejoin="round" transform="translate(2.5 4.16667)" d="M0 0L2.0833333 0C2.7736893 0 3.3333333 0.55964404 3.3333333 1.25L3.3333333 2.0833333C3.3333333 2.7736893 2.7736893 3.3333333 2.0833333 3.3333333L0.83333331 3.3333333L2.0833333 3.3333333C2.7736893 3.3333333 3.3333333 3.8929775 3.3333333 4.5833335L3.3333333 5.4166665C3.3333333 6.1070228 2.7736893 6.6666665 2.0833333 6.6666665L0 6.6666665" fill-rule="evenodd"/>
	<path fill="none" stroke="#3F3B37" stroke-width="2" stroke-linecap="round" stroke-linejoin="round" transform="translate(14.1667 4.16667)" d="M0 1.6666666L0 5C0 5.9204745 0.7461921 6.6666665 1.6666666 6.6666665C2.5871413 6.6666665 3.3333333 5.9204745 3.3333333 5L3.3333333 1.6666666C3.3333333 0.7461921 2.5871413 0 1.6666666 0C0.7461921 0 0 0.7461921 0 1.6666666Z" fill-rule="evenodd"/>
	<path fill="none" stroke="#3F3B37" stroke-width="2" stroke-linecap="round" stroke-linejoin="round" transform="translate(2.5 13.3333)" d="M0 0C0 1.3808334 3.75 2.5 7.5 2.5C11.25 2.5 15 1.3808334 15 0" fill-rule="evenodd"/>
</svg>
