<?xml version="1.0" encoding="utf-8" ?>
<svg xmlns="http://www.w3.org/2000/svg" xmlns:xlink="http://www.w3.org/1999/xlink" width="21" height="21">
	<path fill="none" stroke="#1E1E1E" stroke-width="1.4815255" stroke-linecap="round" stroke-linejoin="round" transform="translate(13.265 7.50027)" d="M0.3030507 0.30002019L0.3030507 0.30608121" fill-rule="evenodd"/>
	<path fill="none" stroke="#1E1E1E" stroke-width="1.4815255" stroke-linecap="round" stroke-linejoin="round" transform="translate(1.29346 0.951483)" d="M13.13355 4.0676537C14.383662 4.8336115 15.33543 6.0458045 15.818397 7.4871349L17.172941 7.4871349C17.730804 7.4871349 18.183043 7.9660072 18.183043 8.5567255L18.183043 10.695907C18.183043 11.286626 17.730804 11.765498 17.172941 11.765498L15.817387 11.765498C15.477567 12.782023 14.901634 13.691653 14.14264 14.410596L14.14264 16.578655C14.14264 17.464733 13.464284 18.183043 12.627489 18.183043C11.790695 18.183043 11.112339 17.464733 11.112339 16.578655L11.112339 15.955085C10.778546 16.014292 10.440681 16.043987 10.102239 16.043861L6.0618362 16.043861C5.7233934 16.043987 5.3855276 16.014292 5.0517359 15.955085L5.0517359 16.578655C5.0517359 17.464733 4.3733797 18.183043 3.5365851 18.183043C2.6997905 18.183043 2.0214345 17.464733 2.0214345 16.578655L2.0214345 14.439474L2.0214345 14.410596C0.14781328 12.636851 -0.4975622 9.8226604 0.39915314 7.3365598C1.2958685 4.8504586 3.5485954 3.2083435 6.0618362 3.2087722L8.5870876 3.2087722L13.13254 0L13.13355 4.0676537Z" fill-rule="evenodd"/>
</svg>
