<?xml version="1.0" encoding="utf-8" ?>
<svg xmlns="http://www.w3.org/2000/svg" xmlns:xlink="http://www.w3.org/1999/xlink" width="17" height="17">
	<path fill="#6B3609" d="M6.4392505 0C2.8934689 0 0 2.8934715 0 6.4392505C0 9.9850302 2.8934689 12.878501 6.4392505 12.878501C7.8928151 12.878501 9.2320728 12.386906 10.311995 11.568793L14.470967 15.726898C14.693735 15.958925 15.024535 16.052391 15.335789 15.971251C15.647041 15.89011 15.89011 15.647041 15.971251 15.335789C16.052391 15.024535 15.958925 14.693735 15.726898 14.470967L11.568793 10.311995C12.386906 9.2320728 12.878501 7.8928142 12.878501 6.4392505C12.878501 2.8934715 9.9850321 0 6.4392505 0ZM6.4392505 1.776345C9.0250254 1.776345 11.102157 3.853478 11.102157 6.4392505C11.102157 7.6807876 10.619907 8.8020563 9.8358164 9.635457C9.7594929 9.690712 9.6924467 9.7577581 9.6371918 9.8340816C8.8036118 10.619169 7.681675 11.102157 6.4392505 11.102157C3.8534763 11.102157 1.776345 9.0250235 1.776345 6.4392505C1.776345 3.853478 3.8534763 1.776345 6.4392505 1.776345Z"/>
</svg>
