<?xml version="1.0" encoding="utf-8" ?>
<svg xmlns="http://www.w3.org/2000/svg" xmlns:xlink="http://www.w3.org/1999/xlink" width="32" height="32">
	<path fill="white" d="M32 16Q32 16.392776 31.980726 16.785082Q31.961454 17.177387 31.922956 17.568274Q31.884457 17.95916 31.826824 18.347685Q31.76919 18.736212 31.692562 19.121443Q31.615934 19.506674 31.520496 19.88768Q31.42506 20.268688 31.311043 20.644554Q31.197025 21.020416 31.064701 21.390234Q30.932377 21.760052 30.782068 22.122932Q30.63176 22.485809 30.463825 22.840878Q30.295891 23.195946 30.110737 23.542345Q29.925583 23.888744 29.723654 24.225639Q29.521725 24.562534 29.303509 24.889118Q29.085293 25.215702 28.851316 25.531185Q28.61734 25.846668 28.368164 26.150291Q28.118988 26.453911 27.855215 26.74494Q27.591442 27.035969 27.313705 27.313705Q27.035969 27.591442 26.744942 27.855215Q26.453911 28.118988 26.150291 28.368164Q25.846668 28.61734 25.531185 28.851316Q25.215702 29.085293 24.889118 29.303509Q24.562534 29.521725 24.225639 29.723654Q23.888744 29.925583 23.542347 30.110739Q23.195946 30.295891 22.840878 30.463827Q22.485809 30.63176 22.122932 30.78207Q21.760052 30.932381 21.390236 31.064703Q21.020416 31.197025 20.644554 31.311045Q20.268688 31.42506 19.88768 31.520498Q19.506674 31.615936 19.121443 31.692562Q18.736212 31.76919 18.347687 31.826822Q17.95916 31.884457 17.568275 31.922956Q17.177387 31.961454 16.785082 31.980728Q16.392776 32 16 32Q15.607222 32 15.214917 31.980726Q14.822613 31.961454 14.431726 31.922956Q14.040838 31.884457 13.652311 31.826824Q13.263784 31.76919 12.878554 31.692562Q12.493323 31.615934 12.112316 31.520496Q11.73131 31.42506 11.355445 31.311043Q10.979579 31.197025 10.609761 31.064701Q10.239943 30.932377 9.8770638 30.782068Q9.514184 30.63176 9.1591167 30.463825Q8.8040504 30.295891 8.4576511 30.110737Q8.1112518 29.925583 7.7743554 29.723654Q7.4374585 29.521725 7.1108756 29.303509Q6.7842927 29.085293 6.468811 28.851316Q6.1533289 28.61734 5.8497076 28.368164Q5.5460863 28.118988 5.2550569 27.855215Q4.9640274 27.591442 4.6862912 27.313705Q4.408555 27.035969 4.1447821 26.744942Q3.8810084 26.453911 3.6318328 26.150291Q3.3826571 25.846668 3.1486793 25.531185Q2.9147017 25.215702 2.696486 24.889118Q2.4782701 24.562534 2.2763419 24.225639Q2.0744138 23.888744 1.8892597 23.542347Q1.7041054 23.195946 1.5361711 22.840878Q1.3682369 22.485809 1.2179273 22.122932Q1.0676178 21.760052 0.93529487 21.390236Q0.80297196 21.020416 0.68895459 20.644554Q0.57493716 20.268688 0.47949991 19.88768Q0.38406265 19.506674 0.30743548 19.121443Q0.2308083 18.736212 0.17317583 18.347687Q0.11554334 17.95916 0.077044368 17.568275Q0.038545396 17.177387 0.019272698 16.785082Q0 16.392776 0 16Q0 15.607222 0.019272698 15.214917Q0.038545396 14.822613 0.077044368 14.431726Q0.11554334 14.040838 0.17317581 13.652311Q0.2308083 13.263784 0.30743548 12.878554Q0.38406265 12.493323 0.47949988 12.112316Q0.57493716 11.73131 0.68895459 11.355445Q0.80297196 10.979579 0.93529487 10.609761Q1.0676178 10.239943 1.2179273 9.8770638Q1.3682369 9.514184 1.5361711 9.1591167Q1.7041053 8.8040504 1.8892596 8.4576511Q2.0744138 8.1112518 2.2763419 7.7743554Q2.4782701 7.4374585 2.696486 7.1108756Q2.9147017 6.7842927 3.1486793 6.468811Q3.3826568 6.1533289 3.6318326 5.8497076Q3.8810081 5.5460863 4.1447816 5.2550569Q4.408555 4.9640274 4.6862912 4.6862912Q4.9640274 4.408555 5.2550569 4.1447821Q5.5460863 3.8810084 5.8497076 3.6318328Q6.1533289 3.3826571 6.468811 3.1486793Q6.7842932 2.9147017 7.1108761 2.696486Q7.437459 2.4782701 7.7743554 2.2763419Q8.1112518 2.0744138 8.4576511 1.8892597Q8.8040504 1.7041054 9.1591167 1.5361711Q9.514184 1.3682369 9.8770638 1.2179273Q10.239943 1.0676178 10.60976 0.93529487Q10.979579 0.80297196 11.355445 0.68895459Q11.73131 0.57493716 12.112316 0.47949991Q12.493323 0.38406265 12.878554 0.30743548Q13.263784 0.2308083 13.652311 0.17317583Q14.040838 0.11554334 14.431726 0.077044368Q14.822613 0.038545396 15.214918 0.019272698Q15.607222 0 16 0Q16.392776 0 16.785082 0.019272698Q17.177387 0.038545396 17.568274 0.077044368Q17.95916 0.11554334 18.347685 0.17317581Q18.736212 0.2308083 19.121443 0.30743548Q19.506674 0.38406265 19.88768 0.47949988Q20.268688 0.57493716 20.644554 0.68895459Q21.020416 0.80297196 21.390234 0.93529487Q21.760052 1.0676178 22.122932 1.2179273Q22.485809 1.3682369 22.840878 1.5361711Q23.195946 1.7041053 23.542345 1.8892596Q23.888744 2.0744138 24.225639 2.2763419Q24.562534 2.4782701 24.889118 2.696486Q25.215702 2.9147017 25.531185 3.1486793Q25.846668 3.3826568 26.150291 3.6318326Q26.453911 3.8810081 26.74494 4.1447816Q27.035969 4.408555 27.313705 4.6862912Q27.591442 4.9640274 27.855215 5.2550569Q28.118988 5.5460863 28.368164 5.8497076Q28.61734 6.1533289 28.851316 6.468811Q29.085293 6.7842932 29.303509 7.1108761Q29.521725 7.437459 29.723654 7.7743554Q29.925583 8.1112518 30.110739 8.4576511Q30.295891 8.8040504 30.463827 9.1591167Q30.63176 9.514184 30.78207 9.8770638Q30.932381 10.239943 31.064703 10.60976Q31.197025 10.979579 31.311045 11.355445Q31.42506 11.73131 31.520498 12.112316Q31.615936 12.493323 31.692562 12.878554Q31.76919 13.263784 31.826822 13.652311Q31.884457 14.040838 31.922956 14.431726Q31.961454 14.822613 31.980728 15.214918Q32 15.607222 32 16Z"/>
	<path fill="none" stroke="#E0DAD1" stroke-width="2" stroke-miterlimit="5" d="M32 16Q32 16.392776 31.980726 16.785082Q31.961454 17.177387 31.922956 17.568274Q31.884457 17.95916 31.826824 18.347685Q31.76919 18.736212 31.692562 19.121443Q31.615934 19.506674 31.520496 19.88768Q31.42506 20.268688 31.311043 20.644554Q31.197025 21.020416 31.064701 21.390234Q30.932377 21.760052 30.782068 22.122932Q30.63176 22.485809 30.463825 22.840878Q30.295891 23.195946 30.110737 23.542345Q29.925583 23.888744 29.723654 24.225639Q29.521725 24.562534 29.303509 24.889118Q29.085293 25.215702 28.851316 25.531185Q28.61734 25.846668 28.368164 26.150291Q28.118988 26.453911 27.855215 26.74494Q27.591442 27.035969 27.313705 27.313705Q27.035969 27.591442 26.744942 27.855215Q26.453911 28.118988 26.150291 28.368164Q25.846668 28.61734 25.531185 28.851316Q25.215702 29.085293 24.889118 29.303509Q24.562534 29.521725 24.225639 29.723654Q23.888744 29.925583 23.542347 30.110739Q23.195946 30.295891 22.840878 30.463827Q22.485809 30.63176 22.122932 30.78207Q21.760052 30.932381 21.390236 31.064703Q21.020416 31.197025 20.644554 31.311045Q20.268688 31.42506 19.88768 31.520498Q19.506674 31.615936 19.121443 31.692562Q18.736212 31.76919 18.347687 31.826822Q17.95916 31.884457 17.568275 31.922956Q17.177387 31.961454 16.785082 31.980728Q16.392776 32 16 32Q15.607222 32 15.214917 31.980726Q14.822613 31.961454 14.431726 31.922956Q14.040838 31.884457 13.652311 31.826824Q13.263784 31.76919 12.878554 31.692562Q12.493323 31.615934 12.112316 31.520496Q11.73131 31.42506 11.355445 31.311043Q10.979579 31.197025 10.609761 31.064701Q10.239943 30.932377 9.8770638 30.782068Q9.514184 30.63176 9.1591167 30.463825Q8.8040504 30.295891 8.4576511 30.110737Q8.1112518 29.925583 7.7743554 29.723654Q7.4374585 29.521725 7.1108756 29.303509Q6.7842927 29.085293 6.468811 28.851316Q6.1533289 28.61734 5.8497076 28.368164Q5.5460863 28.118988 5.2550569 27.855215Q4.9640274 27.591442 4.6862912 27.313705Q4.408555 27.035969 4.1447821 26.744942Q3.8810084 26.453911 3.6318328 26.150291Q3.3826571 25.846668 3.1486793 25.531185Q2.9147017 25.215702 2.696486 24.889118Q2.4782701 24.562534 2.2763419 24.225639Q2.0744138 23.888744 1.8892597 23.542347Q1.7041054 23.195946 1.5361711 22.840878Q1.3682369 22.485809 1.2179273 22.122932Q1.0676178 21.760052 0.93529487 21.390236Q0.80297196 21.020416 0.68895459 20.644554Q0.57493716 20.268688 0.47949991 19.88768Q0.38406265 19.506674 0.30743548 19.121443Q0.2308083 18.736212 0.17317583 18.347687Q0.11554334 17.95916 0.077044368 17.568275Q0.038545396 17.177387 0.019272698 16.785082Q0 16.392776 0 16Q0 15.607222 0.019272698 15.214917Q0.038545396 14.822613 0.077044368 14.431726Q0.11554334 14.040838 0.17317581 13.652311Q0.2308083 13.263784 0.30743548 12.878554Q0.38406265 12.493323 0.47949988 12.112316Q0.57493716 11.73131 0.68895459 11.355445Q0.80297196 10.979579 0.93529487 10.609761Q1.0676178 10.239943 1.2179273 9.8770638Q1.3682369 9.514184 1.5361711 9.1591167Q1.7041053 8.8040504 1.8892596 8.4576511Q2.0744138 8.1112518 2.2763419 7.7743554Q2.4782701 7.4374585 2.696486 7.1108756Q2.9147017 6.7842927 3.1486793 6.468811Q3.3826568 6.1533289 3.6318326 5.8497076Q3.8810081 5.5460863 4.1447816 5.2550569Q4.408555 4.9640274 4.6862912 4.6862912Q4.9640274 4.408555 5.2550569 4.1447821Q5.5460863 3.8810084 5.8497076 3.6318328Q6.1533289 3.3826571 6.468811 3.1486793Q6.7842932 2.9147017 7.1108761 2.696486Q7.437459 2.4782701 7.7743554 2.2763419Q8.1112518 2.0744138 8.4576511 1.8892597Q8.8040504 1.7041054 9.1591167 1.5361711Q9.514184 1.3682369 9.8770638 1.2179273Q10.239943 1.0676178 10.60976 0.93529487Q10.979579 0.80297196 11.355445 0.68895459Q11.73131 0.57493716 12.112316 0.47949991Q12.493323 0.38406265 12.878554 0.30743548Q13.263784 0.2308083 13.652311 0.17317583Q14.040838 0.11554334 14.431726 0.077044368Q14.822613 0.038545396 15.214918 0.019272698Q15.607222 0 16 0Q16.392776 0 16.785082 0.019272698Q17.177387 0.038545396 17.568274 0.077044368Q17.95916 0.11554334 18.347685 0.17317581Q18.736212 0.2308083 19.121443 0.30743548Q19.506674 0.38406265 19.88768 0.47949988Q20.268688 0.57493716 20.644554 0.68895459Q21.020416 0.80297196 21.390234 0.93529487Q21.760052 1.0676178 22.122932 1.2179273Q22.485809 1.3682369 22.840878 1.5361711Q23.195946 1.7041053 23.542345 1.8892596Q23.888744 2.0744138 24.225639 2.2763419Q24.562534 2.4782701 24.889118 2.696486Q25.215702 2.9147017 25.531185 3.1486793Q25.846668 3.3826568 26.150291 3.6318326Q26.453911 3.8810081 26.74494 4.1447816Q27.035969 4.408555 27.313705 4.6862912Q27.591442 4.9640274 27.855215 5.2550569Q28.118988 5.5460863 28.368164 5.8497076Q28.61734 6.1533289 28.851316 6.468811Q29.085293 6.7842932 29.303509 7.1108761Q29.521725 7.437459 29.723654 7.7743554Q29.925583 8.1112518 30.110739 8.4576511Q30.295891 8.8040504 30.463827 9.1591167Q30.63176 9.514184 30.78207 9.8770638Q30.932381 10.239943 31.064703 10.60976Q31.197025 10.979579 31.311045 11.355445Q31.42506 11.73131 31.520498 12.112316Q31.615936 12.493323 31.692562 12.878554Q31.76919 13.263784 31.826822 13.652311Q31.884457 14.040838 31.922956 14.431726Q31.961454 14.822613 31.980728 15.214918Q32 15.607222 32 16Z"/>
	<path fill="none" stroke="black" stroke-width="1.5" stroke-linecap="round" stroke-linejoin="round" transform="translate(10 10)" d="M0 3L0 1.5C0 0.67157286 0.67157286 0 1.5 0L3 0" fill-rule="evenodd"/>
	<path fill="none" stroke="black" stroke-width="1.5" stroke-linecap="round" stroke-linejoin="round" transform="translate(10 19)" d="M0 0L0 1.5C0 2.3284271 0.67157286 3 1.5 3L3 3" fill-rule="evenodd"/>
	<path fill="none" stroke="black" stroke-width="1.5" stroke-linecap="round" stroke-linejoin="round" transform="translate(19 10)" d="M0 0L1.5 0C2.3284271 0 3 0.67157286 3 1.5L3 3" fill-rule="evenodd"/>
	<path fill="none" stroke="black" stroke-width="1.5" stroke-linecap="round" stroke-linejoin="round" transform="translate(19 19)" d="M0 3L1.5 3C2.3284271 3 3 2.3284271 3 1.5L3 0" fill-rule="evenodd"/>
</svg>
