<?xml version="1.0" encoding="UTF-8"?>
<svg width="32px" height="32px" viewBox="0 0 32 32" version="1.1" xmlns="http://www.w3.org/2000/svg" xmlns:xlink="http://www.w3.org/1999/xlink">
    <title>C9CD467A-906F-41E4-A573-665385F21921</title>
    <g id="Final" stroke="none" stroke-width="1" fill="none" fill-rule="evenodd" stroke-linecap="round" stroke-linejoin="round">
        <g id="AA---DV---Top-10-List-Overview" transform="translate(-897, -956)" fill-rule="nonzero" stroke="#000000" stroke-width="2.66666667">
            <g id="Group-34" transform="translate(872, 931)">
                <g id="Group-44" transform="translate(25, 25)">
                    <g id="recycle" transform="translate(-0, 0)">
                        <g id="Vector" transform="translate(4.1139, 4.0352)">
                            <polyline points="11.8860677 18.6315104 9.21940104 21.2981771 11.8860677 23.9648438"></polyline>
                            <path d="M9.21940104,21.2981771 L21.219401,21.2981771 C21.6442078,21.2762759 22.057612,21.1530698 22.4250997,20.9388428 C22.7925874,20.7246158 23.1034947,20.4255855 23.3318659,20.0667165 C23.5602371,19.7078475 23.6994441,19.2995526 23.7378667,18.8759206 C23.7762893,18.4522886 23.7128126,18.0256111 23.5527344,17.6315104 L22.8194021,16.2981771"></path>
                            <polyline points="7.26742999 10.6309484 6.29142952 6.98828125 2.64876302 7.96428172"></polyline>
                            <path d="M6.29142952,6.98828125 L0.291383286,17.3802821 C0.0981052319,17.759044 -0.00179255086,18.1785353 0,18.6037572 C0.00184124476,19.0289792 0.105320235,19.4476004 0.301827927,19.8246969 C0.49833562,20.2017933 0.782173673,20.5264296 1.1296614,20.77152 C1.47714913,21.0166103 1.87821007,21.1750477 2.29938332,21.2336146 L3.82071718,21.2656148"></path>
                            <polyline points="16.5047201 10.6315104 20.1473859 11.6075109 21.1233864 7.96484375"></polyline>
                            <path d="M20.1473859,11.6075109 L14.1473999,1.21526893 C13.9159442,0.858518839 13.6025246,0.562296708 13.2332942,0.35131979 C12.8640637,0.140342871 12.4497311,0.0207299793 12.024868,0.00246191071 C11.6000049,-0.0158061579 11.1769331,0.0678004622 10.7909559,0.246305307 C10.4049787,0.424810151 10.0672895,0.693036358 9.80606588,1.02860244 L9.01806641,2.32993587"></path>
                        </g>
                    </g>
                </g>
            </g>
        </g>
    </g>
</svg>