<?xml version="1.0" encoding="UTF-8"?>
<svg width="32px" height="32px" viewBox="0 0 32 32" version="1.1" xmlns="http://www.w3.org/2000/svg" xmlns:xlink="http://www.w3.org/1999/xlink">
    <title>3BA6FF37-9EF2-48E2-83B8-8089BE72478E</title>
    <g id="Final" stroke="none" stroke-width="1" fill="none" fill-rule="evenodd" stroke-linecap="round" stroke-linejoin="round">
        <g id="AA---DV---Top-10-List-Overview" transform="translate(-155, -956)" fill-rule="nonzero" stroke="#000000" stroke-width="2.66666667">
            <g id="Group-34" transform="translate(130, 931)">
                <g id="Group-45" transform="translate(25, 25)">
                    <g id="cloud-computing" transform="translate(-0, 0)">
                        <g id="Vector" transform="translate(2.6667, 4)">
                            <path d="M6.20933342,17.3331795 C2.78000005,17.3331795 0,14.6571798 0,11.3558464 C0,8.05584653 2.78000005,5.3798453 6.20933342,5.3798453 C6.73333343,3.03051202 8.60133298,1.11317929 11.109333,0.349179268 C13.6159997,-0.413487434 16.384,0.0918459892 18.368,1.6825126 C20.3520001,3.26917934 21.250666,5.69184573 20.7279994,8.04117902 L22.0479991,8.04117902 C24.5986657,8.04117902 26.6666667,10.1211797 26.6666667,12.6891797 C26.6666667,15.2585131 24.5986665,17.3385124 22.0466665,17.3385124 L6.20933342,17.3385124"></path>
                            <line x1="13.3333333" y1="17.3333333" x2="13.3333333" y2="24"></line>
                            <path d="M18.6666667,17.3333333 L18.6666667,22.6666667 C18.6666667,23.0202887 18.8071414,23.3594282 19.0571899,23.6094767 C19.3072384,23.8595252 19.646378,24 20,24 L25.3333333,24"></path>
                            <path d="M8,17.3333333 L8,22.6666667 C8,23.0202887 7.85952395,23.3594282 7.60947545,23.6094767 C7.35942696,23.8595252 7.02028867,24 6.66666667,24 L1.33333333,24"></path>
                        </g>
                    </g>
                </g>
            </g>
        </g>
    </g>
</svg>