<?xml version="1.0" encoding="UTF-8"?>
<svg width="32px" height="32px" viewBox="0 0 32 32" version="1.1" xmlns="http://www.w3.org/2000/svg" xmlns:xlink="http://www.w3.org/1999/xlink">
    <title>F50136B1-9160-4A92-9F9E-55B76D9F74A6</title>
    <g id="Final" stroke="none" stroke-width="1" fill="none" fill-rule="evenodd" stroke-linecap="round" stroke-linejoin="round">
        <g id="AA---DV---Top-10-List-Overview" transform="translate(-526, -956)" fill-rule="nonzero" stroke="#000000" stroke-width="2.66666667">
            <g id="Group-34" transform="translate(130, 931)">
                <g id="Group-43" transform="translate(396, 25)">
                    <g id="gas-station" transform="translate(0, -0)">
                        <g id="Vector" transform="translate(4, 5.3333)">
                            <path d="M16,9.33333333 C16.707244,9.33333333 17.3855206,9.61428543 17.8856176,10.1143824 C18.3857146,10.6144794 18.6666667,11.292756 18.6666667,12 L18.6666667,16 C18.6666667,16.530433 18.8773814,17.0391398 19.2524541,17.4142125 C19.6275269,17.7892853 20.1362337,18 20.6666667,18 C21.1970996,18 21.7058065,17.7892853 22.0808792,17.4142125 C22.455952,17.0391398 22.6666667,16.530433 22.6666667,16 L22.6666667,6.66666667 L18.6666667,2.66666667"></path>
                            <path d="M1.33333333,21.3333333 L1.33333333,2.66666667 C1.33333333,1.95942267 1.61428479,1.28114545 2.11438179,0.781048457 C2.61447879,0.28095146 3.292756,0 4,0 L12,0 C12.707244,0 13.3855206,0.28095146 13.8856176,0.781048457 C14.3857146,1.28114545 14.6666667,1.95942267 14.6666667,2.66666667 L14.6666667,21.3333333"></path>
                            <line x1="0" y1="21.3333333" x2="16" y2="21.3333333"></line>
                            <path d="M20,4 L20,5.33333333 C20,5.68695533 20.1404748,6.02609362 20.3905233,6.27614212 C20.6405718,6.52619062 20.9797113,6.66666667 21.3333333,6.66666667 L22.6666667,6.66666667"></path>
                            <line x1="1.33333333" y1="9.33333333" x2="16" y2="9.33333333"></line>
                        </g>
                    </g>
                </g>
            </g>
        </g>
    </g>
</svg>