<svg id="Capa_1" enable-background="new 0 0 512 512" height="512" viewBox="0 0 512 512" width="512" xmlns="http://www.w3.org/2000/svg"><g><path d="m503.162 443.467h-494.325c-4.881 0-8.837-3.956-8.837-8.837v-35.936l10.911-20.687-10.911-20.687v-39.965l29.542-16.248v-38.957l.698-172.396c0-4.881 3.956-8.837 8.837-8.837l196.183-.847 20.599-11.541h247.303c4.881 0 8.837 3.956 8.837 8.837v35.936l-14.718 20.687 14.718 20.687v39.965l-10.299 20.688 10.299 20.687v39.965l-10.299 20.687 10.299 20.687v39.965l-10.299 20.687 10.299 20.687v35.936c0 4.881-3.956 8.837-8.837 8.837z" fill="#f9f3f1"/><path d="m512 77.371v35.932l-10.3 20.687 10.3 20.687v39.965l-10.3 20.687 10.3 20.687v39.965l-10.3 20.687 10.3 20.687v39.965l-10.3 20.687 10.3 20.687v35.939c0 4.882-3.955 8.837-8.837 8.837h-20.599c4.882 0 8.837-3.955 8.837-8.837v-357.262c0-4.882-3.955-8.837-8.837-8.837h20.599c4.882 0 8.837 3.955 8.837 8.837z" fill="#f3eae6"/><g fill="#ee6161"><path d="m0 113.303h511.999v41.374h-511.999z"/><path d="m0 194.642h511.999v41.374h-511.999z"/><path d="m0 275.981h511.999v41.374h-511.999z"/><path d="m0 357.32h511.999v41.374h-511.999z"/></g><g fill="#e94444"><path d="m491.401 113.303h20.599v41.374h-20.599z"/><path d="m491.401 194.642h20.599v41.374h-20.599z"/><path d="m491.401 275.981h20.599v41.374h-20.599z"/><path d="m491.401 357.32h20.599v41.374h-20.599z"/></g><path d="m255.859 275.981h-255.859v-198.615c0-4.881 3.956-8.837 8.837-8.837h247.022z" fill="#8ac9fe"/><path d="m235.26 68.534h20.599v207.444h-20.599z" fill="#60b7ff"/><path d="m140.391 230.269c1.387.019 2.762-.011 4.125-.088 2.692-.152 3.804 3.421 1.452 4.741-10.93 6.134-23.629 9.488-37.136 9.111-37.983-1.062-68.865-32.101-69.735-70.088-.926-40.432 31.578-73.495 71.791-73.495 12.75 0 24.727 3.32 35.106 9.153 2.335 1.312 1.269 4.895-1.405 4.741-1.125-.065-2.259-.098-3.401-.098-32.496 0-58.748 26.712-57.999 59.377.71 30.999 26.197 56.232 57.202 56.646z" fill="#ffd15b"/><path d="m145.973 234.924c-4.635 2.596-9.579 4.686-14.77 6.221-36.543-.824-66.474-30.662-67.318-67.267-.875-38.284 29.467-69.677 67.339-70.501 5.191 1.524 10.135 3.625 14.77 6.221 2.338 1.318 1.267 4.902-1.401 4.748-1.133-.072-2.266-.103-3.409-.103-32.495 0-58.749 26.717-57.997 59.377.711 31.002 26.202 56.236 57.204 56.648 1.39.021 2.76-.01 4.12-.093 2.698-.143 3.81 3.431 1.462 4.749z" fill="#ffc344"/><g><path d="m216.782 172.255c0 5.126-5.989 8.692-8.384 12.831-2.471 4.27-2.649 11.213-6.919 13.683-4.139 2.395-10.184-.853-15.31-.853s-11.171 3.248-15.31.853c-4.27-2.471-4.448-9.413-6.918-13.683-2.395-4.139-8.383-7.705-8.383-12.83 0-5.126 5.989-8.692 8.384-12.831 2.471-4.27 2.649-11.213 6.919-13.683 4.139-2.395 10.184.853 15.31.853s11.171-3.248 15.31-.853c4.27 2.471 4.448 9.413 6.918 13.683 2.394 4.139 8.383 7.705 8.383 12.83z" fill="#ffd15b"/></g><g><path d="m216.782 172.251c0 5.129-5.994 8.693-8.384 12.833-2.472 4.274-2.647 11.216-6.921 13.688-4.14 2.39-10.186-.855-15.305-.855-1.607 0-3.306.319-5.016.68 4.007-2.606 4.223-9.331 6.643-13.513 2.389-4.14 8.384-7.704 8.384-12.833 0-5.119-5.994-8.682-8.384-12.823-2.42-4.182-2.637-10.907-6.643-13.513 1.71.361 3.409.68 5.016.68 5.119 0 11.165-3.245 15.305-.855 4.274 2.472 4.449 9.414 6.921 13.688 2.39 4.14 8.384 7.704 8.384 12.823z" fill="#ffc344"/></g></g></svg>