<?xml version="1.0" encoding="utf-8" ?>
<svg xmlns="http://www.w3.org/2000/svg" xmlns:xlink="http://www.w3.org/1999/xlink" width="24" height="24">
	<path fill="none" stroke="#3F3B37" stroke-width="2" stroke-linecap="round" stroke-linejoin="round" transform="translate(6 2.9942)" d="M0 7.0059214C-0.0023423953 4.0474839 1.8554369 1.4070002 4.6407881 0.40991706C7.4261398 -0.58716613 10.537584 0.27446482 12.413267 2.5622959C14.28895 4.8501272 14.523829 8.070116 13 10.605922C12.431459 11.363978 11.758059 12.037379 11 12.605922C10.113738 13.440704 9.4297009 14.466761 9 15.605922C8.3716869 16.793285 7.2457557 17.637848 5.9299941 17.908739C4.614233 18.179632 3.2462506 17.848522 2.2000022 17.005922" fill-rule="evenodd"/>
	<path fill="none" stroke="#3F3B37" stroke-width="2" stroke-linecap="round" stroke-linejoin="round" transform="translate(9.99978 6.96395)" d="M0.00021687368 3.0361714C-0.016321648 1.6532998 0.91461629 0.43830928 2.2541659 0.094485983C3.5937154 -0.24933733 4.9947295 0.367109 5.6462445 1.5870006C6.2977595 2.8068924 6.0309339 4.3140922 5.000217 5.2361712" fill-rule="evenodd"/>
</svg>
