<?xml version="1.0" encoding="utf-8" ?>
<svg xmlns="http://www.w3.org/2000/svg" xmlns:xlink="http://www.w3.org/1999/xlink" width="22" height="21">
	<path fill="none" stroke="#3F3B37" stroke-width="1.95" stroke-linecap="round" stroke-linejoin="round" transform="translate(12.5708 9.10253)" d="M0.43347424 0.42891473L0.43347424 0.43757966" fill-rule="evenodd"/>
	<path fill="none" stroke="#3F3B37" stroke-width="1.95" stroke-linecap="round" stroke-linejoin="round" transform="translate(2.59892 2.59949)" d="M11.272256 0L11.272256 3.2952783C12.345201 3.9157944 13.162085 4.8978133 13.576605 6.0654607L14.739182 6.0654607C15.217985 6.0654607 15.606132 6.4534035 15.606132 6.9319553L15.606132 8.6649437C15.606132 9.1434956 15.217985 9.5314388 14.739182 9.5314388L13.575738 9.5314388C13.284078 10.354943 12.789766 11.091851 12.138337 11.674279L12.138337 13.430663C12.138337 14.148491 11.556118 14.730405 10.837914 14.730405C10.119711 14.730405 9.5374918 14.148491 9.5374918 13.430663L9.5374918 12.925497C9.2510052 12.973462 8.9610214 12.997519 8.6705437 12.997416L5.2027497 12.997416C4.912271 12.997519 4.6222878 12.973462 4.3358011 12.925497L4.3358011 13.430663C4.3358011 14.148491 3.753582 14.730405 3.0353785 14.730405C2.3171747 14.730405 1.7349557 14.148491 1.7349557 13.430663L1.7349557 11.697675L1.7349557 11.674279C0.12686509 10.237337 -0.4270474 7.9575114 0.34258494 5.9434772C1.1122173 3.9294426 3.0456865 2.5991359 5.2027497 2.5994833L7.3701205 2.5994833L11.271389 0L11.272256 0Z" fill-rule="evenodd"/>
</svg>
